<svg width="20" height="20" viewBox="0 0 20 20" fill="none" xmlns="http://www.w3.org/2000/svg">
<path fill-rule="evenodd" clip-rule="evenodd" d="M17.2071 6.79632C17.2071 8.05225 17.539 8.79252 18.2695 9.64558C18.8231 10.274 19 11.0808 19 11.956C19 12.8302 18.7128 13.6601 18.1373 14.3339C17.384 15.1417 16.3215 15.6573 15.2372 15.747C13.6659 15.8809 12.0936 15.9937 10.5005 15.9937C8.90634 15.9937 7.33504 15.9262 5.76375 15.747C4.67845 15.6573 3.61602 15.1417 2.86366 14.3339C2.28822 13.6601 2 12.8302 2 11.956C2 11.0808 2.1779 10.274 2.73049 9.64558C3.48383 8.79252 3.79392 8.05225 3.79392 6.79632V6.37029C3.79392 4.68833 4.21333 3.58851 5.07699 2.51186C6.36106 0.941696 8.41934 0 10.4558 0H10.5452C12.6254 0 14.7502 0.987018 16.0124 2.62466C16.8314 3.67916 17.2071 4.73265 17.2071 6.37029V6.79632ZM7.57363 18.0608C7.57363 17.5572 8.03578 17.3266 8.46314 17.2279C8.96305 17.1221 12.0092 17.1221 12.5091 17.2279C12.9365 17.3266 13.3986 17.5572 13.3986 18.0608C13.3738 18.5402 13.0925 18.9652 12.7039 19.2351C12.2001 19.6279 11.6087 19.8767 10.9905 19.9663C10.6486 20.0106 10.3127 20.0116 9.98275 19.9663C9.36357 19.8767 8.77223 19.6279 8.26933 19.2341C7.87974 18.9652 7.59848 18.5402 7.57363 18.0608Z" fill="#EFBE24"/>
</svg>
