<svg width="12" height="12" viewBox="0 0 12 12" fill="none" xmlns="http://www.w3.org/2000/svg">
<path d="M5.41828 6.18035L5.41752 6.0033C5.41752 5.26749 5.46061 4.59666 5.52551 4.15935L5.58238 3.88742C5.61401 3.74339 5.6556 3.5794 5.69897 3.49569C5.85769 3.18946 6.16805 3 6.50023 3H6.52914C6.74568 3.00716 7.20059 3.19717 7.20059 3.20378C7.93258 3.51092 9.34477 4.43786 9.997 5.09869L10.1865 5.29709C10.2362 5.35086 10.2919 5.4145 10.3265 5.46411C10.4422 5.61722 10.5 5.80668 10.5 5.99614C10.5 6.20764 10.4351 6.40426 10.3124 6.56508L10.1176 6.77524L10.074 6.82008C9.48219 7.46172 7.93694 8.51092 7.12859 8.83202L7.00654 8.87879C6.85968 8.93143 6.65391 8.99422 6.52914 9C6.37041 9 6.21878 8.9631 6.07424 8.8904C5.89369 8.78851 5.74969 8.62769 5.67006 8.43822C5.61933 8.30714 5.5397 7.91335 5.5397 7.90619C5.46669 7.50913 5.42436 6.88259 5.41828 6.18035ZM1.5 5.99978C1.5 5.58065 1.83654 5.24083 2.25163 5.24083L4.10124 5.40441C4.42687 5.40441 4.69087 5.67097 4.69087 5.99978C4.69087 6.32914 4.42687 6.59515 4.10124 6.59515L2.25163 6.75873C1.83654 6.75873 1.5 6.41891 1.5 5.99978Z" fill="#5D5C5D"/>
</svg>
