<svg width="16" height="16" viewBox="0 0 16 16" fill="none" xmlns="http://www.w3.org/2000/svg">
<path fill-rule="evenodd" clip-rule="evenodd" d="M7.99967 6.42749C7.113 6.42749 6.39233 7.14882 6.39233 8.03549C6.39233 8.92149 7.113 9.64216 7.99967 9.64216C8.88633 9.64216 9.60767 8.92149 9.60767 8.03549C9.60767 7.14882 8.88633 6.42749 7.99967 6.42749ZM7.99967 10.6422C6.56167 10.6422 5.39233 9.47282 5.39233 8.03549C5.39233 6.59749 6.56167 5.42749 7.99967 5.42749C9.43767 5.42749 10.6077 6.59749 10.6077 8.03549C10.6077 9.47282 9.43767 10.6422 7.99967 10.6422Z" fill="#ABABAB"/>
<mask id="mask0_0_84" style="mask-type:luminance" maskUnits="userSpaceOnUse" x="1" y="2" width="14" height="12">
<path fill-rule="evenodd" clip-rule="evenodd" d="M1.33337 2.66675H14.6666V13.4034H1.33337V2.66675Z" fill="white"/>
</mask>
<g mask="url(#mask0_0_84)">
<path fill-rule="evenodd" clip-rule="evenodd" d="M2.37985 8.03501C3.61985 10.7743 5.70852 12.403 7.99985 12.4037C10.2912 12.403 12.3798 10.7743 13.6198 8.03501C12.3798 5.29634 10.2912 3.66768 7.99985 3.66701C5.70918 3.66768 3.61985 5.29634 2.37985 8.03501ZM8.00121 13.4037H7.99854H7.99787C5.24054 13.4017 2.76454 11.469 1.37387 8.23234C1.31987 8.10634 1.31987 7.96367 1.37387 7.83767C2.76454 4.60167 5.24121 2.669 7.99787 2.667C7.99921 2.66634 7.99921 2.66634 7.99987 2.667C8.00121 2.66634 8.00121 2.66634 8.00187 2.667C10.7592 2.669 13.2352 4.60167 14.6259 7.83767C14.6805 7.96367 14.6805 8.10634 14.6259 8.23234C13.2359 11.469 10.7592 13.4017 8.00187 13.4037H8.00121Z" fill="#ABABAB"/>
</g>
</svg>
