<svg width="265" height="59" viewBox="0 0 265 59" fill="none" xmlns="http://www.w3.org/2000/svg">
<rect width="265" height="59" rx="16" fill="white"/>
<path d="M65.4801 24.7905V20.7815C65.4801 20.3552 65.8201 20 66.2501 20C66.6351 20 66.9613 20.2985 67.013 20.6766L67.0201 20.7815V24.7905L71.8 24.7908C74.18 24.7908 76.1353 26.7398 76.2451 29.1704L76.25 29.3861V34.4254C76.25 36.873 74.3627 38.8822 72.018 38.995L71.81 39H60.69C58.31 39 56.3641 37.0608 56.2548 34.6213L56.25 34.4047V29.3758C56.25 26.9281 58.1279 24.9092 60.472 24.7958L60.68 24.7908H65.48V31.1932L63.88 29.541C63.58 29.2312 63.09 29.2312 62.79 29.541C62.64 29.6959 62.57 29.9024 62.57 30.1089C62.57 30.2659 62.6148 30.4295 62.7095 30.5679L62.79 30.6666L65.7 33.6819C65.84 33.8368 66.04 33.9194 66.25 33.9194C66.4167 33.9194 66.5833 33.862 66.7153 33.7533L66.79 33.6819L69.7 30.6666C70 30.3568 70 29.8508 69.7 29.541C69.4273 29.2594 68.9975 29.2338 68.6962 29.4642L68.61 29.541L67.02 31.1932V24.7908L65.4801 24.7905Z" fill="#33D587"/>
<line x1="133" y1="12" x2="133" y2="47" stroke="#5EDE99"/>
<path fill-rule="evenodd" clip-rule="evenodd" d="M194.08 19.5H203.41C206.81 19.5 208.75 21.42 208.75 24.83V34.17C208.75 37.56 206.82 39.5 203.42 39.5H194.08C190.67 39.5 188.75 37.56 188.75 34.17V24.83C188.75 21.42 190.67 19.5 194.08 19.5ZM199.57 30.33H202.41C202.87 30.32 203.24 29.95 203.24 29.49C203.24 29.03 202.87 28.66 202.41 28.66H199.57V25.84C199.57 25.38 199.2 25.01 198.74 25.01C198.28 25.01 197.91 25.38 197.91 25.84V28.66H195.08C194.86 28.66 194.65 28.75 194.49 28.9C194.34 29.06 194.25 29.269 194.25 29.49C194.25 29.95 194.62 30.32 195.08 30.33H197.91V33.16C197.91 33.62 198.28 33.99 198.74 33.99C199.2 33.99 199.57 33.62 199.57 33.16V30.33Z" fill="#33D587"/>
</svg>
