<svg width="20" height="20" viewBox="0 0 20 20" fill="none" xmlns="http://www.w3.org/2000/svg">
<path d="M11.7525 0C12.0099 0 12.2079 0.21 12.2079 0.46V3.68C12.2079 5.51 13.703 7.01 15.5149 7.02C16.2673 7.02 16.8614 7.03 17.3168 7.03C17.6238 7.03 18.1287 7.02 18.5545 7.02C18.802 7.02 19 7.22 19 7.47V15.51C19 17.99 17.0099 20 14.5446 20H6.67327C4.09901 20 2 17.89 2 15.29V4.51C2 2.03 4 0 6.46535 0H11.7525ZM12.7624 10.24H7.87129C7.46535 10.24 7.12871 10.57 7.12871 10.99C7.12871 11.4 7.46535 11.73 7.87129 11.73H12.7624C13.1683 11.73 13.505 11.4 13.505 10.99C13.505 10.57 13.1683 10.24 12.7624 10.24ZM13.6496 0.9062C13.6496 0.4752 14.1674 0.2612 14.4635 0.5722C15.5338 1.6962 17.4041 3.6612 18.4496 4.7592C18.7387 5.0622 18.5268 5.5652 18.11 5.5662C17.2961 5.5692 16.3367 5.5662 15.6466 5.5592C14.5516 5.5592 13.6496 4.6482 13.6496 3.5422V0.9062Z" fill="#5EDE99"/>
</svg>
