<svg width="270" height="95" viewBox="0 0 270 95" fill="none" xmlns="http://www.w3.org/2000/svg">
<path d="M86.3561 16.018C87.0535 16.018 87.5372 16.7132 87.2948 17.3671L64.8188 78.0034C64.6733 78.396 64.2988 78.6566 63.8801 78.6566H57.2763C56.8517 78.6566 56.4733 78.3887 56.3321 77.9882L47.8145 53.8206C47.1869 52.0401 44.6698 52.0377 44.0389 53.817L35.468 77.99C35.3263 78.3896 34.9484 78.6566 34.5244 78.6566H27.8967C27.4892 78.6566 27.1224 78.4096 26.9691 78.032L16.5774 52.4352C16.3101 51.7769 16.7945 51.0575 17.505 51.0575H25.5324C25.9394 51.0575 26.3059 51.3039 26.4595 51.6808L29.7102 59.6586C30.4063 61.3667 32.8459 61.305 33.4546 59.5639L42.4936 33.7079C42.6341 33.3062 43.0131 33.0372 43.4387 33.0372H48.9927C49.4225 33.0372 49.8043 33.3115 49.9415 33.7189L58.649 59.5823C59.2535 61.3779 61.7827 61.4073 62.4288 59.6262L78.0088 16.6778C78.1524 16.2817 78.5286 16.018 78.9499 16.018H86.3561Z" fill="white"/>
<path d="M119.559 56.2794L111.453 79.0891H107.449L102.131 64.0001L96.781 79.0891H92.7765L84.6713 56.2794H89.7651L95.019 72.0411L100.529 56.2794H104.021L109.403 72.2654L114.785 56.2794H119.559Z" fill="white"/>
<path d="M122.121 62.8468H126.958V79.0891H122.121V62.8468ZM127.118 55.2222V59.7713H121.961V55.2222H127.118Z" fill="white"/>
<path d="M137.127 79.3453C134.051 79.3453 131.627 78.6833 129.855 77.3591L131.136 73.9953C131.99 74.6147 132.941 75.0952 133.987 75.4369C135.034 75.7573 136.102 75.9175 137.191 75.9175C138.024 75.9175 138.665 75.7893 139.113 75.5331C139.562 75.2768 139.786 74.903 139.786 74.4118C139.786 74.006 139.626 73.6856 139.305 73.4507C138.985 73.2158 138.419 73.0129 137.607 72.842L134.948 72.2333C133.389 71.8916 132.236 71.347 131.489 70.5995C130.762 69.852 130.399 68.8589 130.399 67.6201C130.399 66.6163 130.688 65.7193 131.264 64.9291C131.862 64.1389 132.685 63.5302 133.731 63.1031C134.778 62.6546 135.984 62.4303 137.351 62.4303C138.504 62.4303 139.636 62.6118 140.747 62.9749C141.858 63.3166 142.851 63.8079 143.726 64.4486L142.381 67.6842C141.548 67.1076 140.694 66.6697 139.818 66.3707C138.964 66.0717 138.131 65.9222 137.319 65.9222C136.529 65.9222 135.91 66.0611 135.461 66.3387C135.013 66.6163 134.788 67.0008 134.788 67.492C134.788 67.8551 134.916 68.1541 135.173 68.389C135.45 68.6026 135.931 68.7841 136.614 68.9336L139.337 69.5423C141.003 69.9267 142.21 70.5034 142.957 71.2723C143.705 72.0411 144.079 73.0663 144.079 74.3477C144.079 75.8855 143.459 77.1028 142.221 77.9998C140.982 78.8968 139.284 79.3453 137.127 79.3453Z" fill="white"/>
<path d="M161.6 71.3684H150.9C150.986 72.8847 151.381 73.9953 152.085 74.7001C152.79 75.3836 153.837 75.7253 155.225 75.7253C156.058 75.7253 156.891 75.5864 157.724 75.3088C158.557 75.0312 159.326 74.6254 160.03 74.0914L161.312 77.3591C160.543 77.9785 159.582 78.4697 158.429 78.8328C157.297 79.1745 156.154 79.3453 155.001 79.3453C152.267 79.3453 150.121 78.5978 148.562 77.1028C147.002 75.5864 146.223 73.5255 146.223 70.9199C146.223 69.2753 146.554 67.8124 147.216 66.5309C147.899 65.2281 148.85 64.2243 150.067 63.5195C151.285 62.7934 152.662 62.4303 154.2 62.4303C156.485 62.4303 158.29 63.1778 159.614 64.6728C160.938 66.1465 161.6 68.1434 161.6 70.6636V71.3684ZM154.328 65.8261C153.41 65.8261 152.662 66.0931 152.085 66.627C151.53 67.161 151.167 67.9405 150.996 68.9657H157.436C157.179 66.8726 156.143 65.8261 154.328 65.8261Z" fill="white"/>
<path d="M172.326 79.3453C169.678 79.3453 167.595 78.5978 166.079 77.1028C164.584 75.6078 163.836 73.5682 163.836 70.9839C163.836 69.2967 164.2 67.8124 164.926 66.5309C165.652 65.2281 166.666 64.2243 167.969 63.5195C169.293 62.7934 170.82 62.4303 172.55 62.4303C173.725 62.4303 174.868 62.6118 175.978 62.9749C177.089 63.338 177.975 63.8292 178.637 64.4486L177.356 67.8124C176.715 67.2998 176.01 66.9047 175.241 66.627C174.472 66.328 173.725 66.1785 172.999 66.1785C171.675 66.1785 170.639 66.5843 169.891 67.3959C169.165 68.1861 168.802 69.3501 168.802 70.8878C168.802 72.4469 169.165 73.6322 169.891 74.4438C170.617 75.2341 171.653 75.6292 172.999 75.6292C173.725 75.6292 174.472 75.4903 175.241 75.2127C176.01 74.9137 176.715 74.5079 177.356 73.9953L178.637 77.3591C177.932 77.9785 177.014 78.4697 175.882 78.8328C174.75 79.1745 173.565 79.3453 172.326 79.3453Z" fill="white"/>
<path d="M190.388 62.4623C191.071 62.4623 191.648 62.5691 192.118 62.7827L192.086 67.2037C191.295 66.8406 190.505 66.6591 189.715 66.6591C188.433 66.6591 187.451 67.0115 186.768 67.7163C186.105 68.3997 185.774 69.3608 185.774 70.5995V79.0891H180.937V67.492C180.937 65.7621 180.852 64.2136 180.681 62.8468H185.23L185.55 65.6339C185.956 64.6088 186.586 63.8292 187.44 63.2953C188.316 62.74 189.298 62.4623 190.388 62.4623Z" fill="white"/>
<path d="M211.065 62.8468L203.568 79.954C202.65 82.0257 201.486 83.5421 200.076 84.5032C198.688 85.4856 196.979 86.1156 194.95 86.3933L193.829 82.6771C195.324 82.3567 196.446 81.9509 197.193 81.4597C197.962 80.9685 198.56 80.253 198.987 79.3133L199.468 78.2561L192.772 62.8468H197.834L201.998 73.3866L206.291 62.8468H211.065Z" fill="white"/>
<path d="M222.591 62.4303C223.98 62.4303 225.218 62.7934 226.308 63.5195C227.397 64.2243 228.24 65.2281 228.838 66.5309C229.458 67.8337 229.767 69.3181 229.767 70.9839C229.767 72.6498 229.468 74.1235 228.87 75.4049C228.272 76.665 227.429 77.6368 226.34 78.3202C225.25 79.0036 224.001 79.3453 222.591 79.3453C221.459 79.3453 220.445 79.1104 219.548 78.6406C218.651 78.1707 217.968 77.5193 217.498 76.6864V86.0089H212.66V67.492C212.66 65.7621 212.575 64.2136 212.404 62.8468H216.953L217.273 65.5378C217.701 64.5767 218.384 63.8185 219.324 63.2632C220.285 62.7079 221.374 62.4303 222.591 62.4303ZM221.214 75.6612C222.41 75.6612 223.328 75.2661 223.969 74.4759C224.61 73.6643 224.93 72.5003 224.93 70.9839C224.93 69.4676 224.599 68.2822 223.937 67.4279C223.296 66.5736 222.388 66.1465 221.214 66.1465C220.018 66.1465 219.089 66.563 218.427 67.3959C217.786 68.2075 217.466 69.3821 217.466 70.9199C217.466 72.4576 217.786 73.6322 218.427 74.4438C219.089 75.2554 220.018 75.6612 221.214 75.6612Z" fill="white"/>
<path d="M238.801 66.4668V72.778C238.801 73.675 239.036 74.337 239.506 74.7642C239.976 75.17 240.584 75.3729 241.332 75.3729C241.802 75.3729 242.336 75.2981 242.934 75.1486V78.8968C242.165 79.1958 241.236 79.3453 240.146 79.3453C238.139 79.3453 236.601 78.7794 235.533 77.6474C234.487 76.5155 233.963 74.9244 233.963 72.8741V66.4668H230.888V62.8468H233.963V59.0345L238.801 57.4647V62.8468H242.934V66.4668H238.801Z" fill="white"/>
<path d="M253.169 79.3453C251.439 79.3453 249.922 79.0036 248.619 78.3202C247.338 77.6368 246.345 76.6543 245.64 75.3729C244.957 74.0914 244.615 72.5964 244.615 70.8878C244.615 69.1792 244.957 67.6842 245.64 66.4028C246.345 65.1213 247.338 64.1389 248.619 63.4555C249.922 62.772 251.439 62.4303 253.169 62.4303C254.877 62.4303 256.372 62.772 257.654 63.4555C258.935 64.1389 259.917 65.1213 260.601 66.4028C261.306 67.6842 261.658 69.1792 261.658 70.8878C261.658 72.5964 261.306 74.0914 260.601 75.3729C259.917 76.6543 258.935 77.6368 257.654 78.3202C256.372 79.0036 254.877 79.3453 253.169 79.3453ZM253.169 75.6612C254.365 75.6612 255.272 75.2661 255.892 74.4759C256.532 73.6856 256.853 72.4896 256.853 70.8878C256.853 69.3074 256.532 68.122 255.892 67.3318C255.272 66.5202 254.365 66.1144 253.169 66.1144C251.951 66.1144 251.022 66.5202 250.381 67.3318C249.741 68.122 249.42 69.3074 249.42 70.8878C249.42 74.0701 250.67 75.6612 253.169 75.6612Z" fill="white"/>
</svg>
