<svg width="20" height="20" viewBox="0 0 20 20" fill="none" xmlns="http://www.w3.org/2000/svg">
<path fill-rule="evenodd" clip-rule="evenodd" d="M16.0227 5.39601V6.92935C17.7451 7.46696 19 9.02614 19 10.8884V15.8253C19 18.1308 17.0886 20 14.7322 20H6.2688C3.91136 20 2 18.1308 2 15.8253V10.8884C2 9.02614 3.25595 7.46696 4.97729 6.92935V5.39601C4.98745 2.41479 7.45667 0 10.4848 0C13.5535 0 16.0227 2.41479 16.0227 5.39601ZM10.5051 1.73895C12.5678 1.73895 14.2445 3.37862 14.2445 5.39591V6.71361H6.75552V5.37604C6.76569 3.36869 8.44231 1.73895 10.5051 1.73895ZM11.3891 14.4549C11.3891 14.9418 10.9928 15.3294 10.4949 15.3294C10.0072 15.3294 9.61087 14.9418 9.61087 14.4549V12.2488C9.61087 11.7718 10.0072 11.3842 10.4949 11.3842C10.9928 11.3842 11.3891 11.7718 11.3891 12.2488V14.4549Z" fill="#33CBD5"/>
</svg>
