<svg width="20" height="20" viewBox="0 0 20 20" fill="none" xmlns="http://www.w3.org/2000/svg">
<path fill-rule="evenodd" clip-rule="evenodd" d="M15.7689 6.3818H20C20 2.98459 17.9644 1 14.5156 1H5.48444C2.03556 1 0 2.98459 0 6.33847V13.6615C0 17.0154 2.03556 19 5.48444 19H14.5156C17.9644 19 20 17.0154 20 13.6615V13.3495H15.7689C13.8052 13.3495 12.2133 11.7975 12.2133 9.883C12.2133 7.96849 13.8052 6.41647 15.7689 6.41647V6.3818ZM15.7689 7.87231H19.2534C19.6657 7.87231 20 8.19824 20 8.60029V11.1309C19.9952 11.531 19.6637 11.8542 19.2534 11.8588H15.8489C14.8548 11.8719 13.9855 11.2083 13.76 10.2642C13.6471 9.67819 13.8056 9.07347 14.1931 8.61212C14.5806 8.15077 15.1574 7.87998 15.7689 7.87231ZM15.92 10.5328H16.2489C16.6711 10.5328 17.0134 10.1992 17.0134 9.78753C17.0134 9.37591 16.6711 9.04222 16.2489 9.04222H15.92C15.7181 9.03991 15.5236 9.1165 15.38 9.25489C15.2364 9.39329 15.1556 9.58199 15.1556 9.77886C15.1555 10.1919 15.4964 10.5281 15.92 10.5328ZM4.73774 6.38179H10.3822C10.8044 6.38179 11.1466 6.0481 11.1466 5.63648C11.1466 5.22486 10.8044 4.89117 10.3822 4.89117H4.73774C4.319 4.89115 3.97817 5.21958 3.9733 5.62781C3.97327 6.04086 4.31412 6.37704 4.73774 6.38179Z" fill="#BD66F2"/>
</svg>
