<svg width="82" height="80" viewBox="0 0 82 80" fill="none" xmlns="http://www.w3.org/2000/svg">
<path fill-rule="evenodd" clip-rule="evenodd" d="M0 40C0 17.924 18.368 0 41 0C63.673 0 82 17.924 82 40C82 62.084 63.673 80 41 80C18.368 80 0 62.084 0 40ZM37.3925 24.8403C37.3925 22.9243 39.0325 21.3203 41.0005 21.3203C42.9685 21.3203 44.5675 22.9243 44.5675 24.8403V42.5203C44.5675 44.4443 42.9685 46.0003 41.0005 46.0003C39.0325 46.0003 37.3925 44.4443 37.3925 42.5203V24.8403ZM41.0405 58.724C39.0315 58.724 37.4325 57.124 37.4325 55.204C37.4325 53.284 39.0315 51.724 40.9995 51.724C43.0085 51.724 44.6075 53.284 44.6075 55.204C44.6075 57.124 43.0085 58.724 41.0405 58.724Z" fill="#F37575"/>
</svg>
